HIERARCHY
ROOT Hips
{
	OFFSET 0.000000 1.471914 24.280096
	CHANNELS 6 Xposition Yposition Zposition Xrotation Yrotation Zrotation
	JOINT Spine
	{
		OFFSET 0.000000 0.900110 1.860670
		CHANNELS 6 Xposition Yposition Zposition Xrotation Yrotation Zrotation
		JOINT Spine1
		{
			OFFSET 0.000000 0.400320 2.270309
			CHANNELS 6 Xposition Yposition Zposition Xrotation Yrotation Zrotation
			JOINT Spine2
			{
				OFFSET 0.000000 0.200920 2.296560
				CHANNELS 6 Xposition Yposition Zposition Xrotation Yrotation Zrotation
				JOINT Spine3
				{
					OFFSET 0.000000 0.000000 2.305330
					CHANNELS 6 Xposition Yposition Zposition Xrotation Yrotation Zrotation
					JOINT Neck
					{
						OFFSET 0.000000 -0.864490 6.051487
						CHANNELS 6 Xposition Yposition Zposition Xrotation Yrotation Zrotation
						JOINT Head
						{
							OFFSET 0.000000 -0.550429 3.121674
							CHANNELS 6 Xposition Yposition Zposition Xrotation Yrotation Zrotation
							End Site
							{
								OFFSET 0.000000 0.000000 3.731750
							}
						}
					}
					JOINT RightShoulder
					{
						OFFSET -0.788280 -1.313800 4.256718
						CHANNELS 6 Xposition Yposition Zposition Xrotation Yrotation Zrotation
						JOINT RightArm
						{
							OFFSET -3.915130 0.000000 0.000000
							CHANNELS 6 Xposition Yposition Zposition Xrotation Yrotation Zrotation
							JOINT RightForeArm
							{
								OFFSET -6.914910 0.000000 0.000000
								CHANNELS 6 Xposition Yposition Zposition Xrotation Yrotation Zrotation
								JOINT RightHand
								{
									OFFSET -6.096219 0.000000 0.000000
									CHANNELS 6 Xposition Yposition Zposition Xrotation Yrotation Zrotation
									JOINT RightHandEnd
									{
										OFFSET -1.749950 0.000000 0.000000
										CHANNELS 6 Xposition Yposition Zposition Xrotation Yrotation Zrotation
										End Site
										{
											OFFSET -1.749950 0.000000 0.000000
										}
									}
									JOINT RightHandThumb1
									{
										OFFSET -0.699980 -1.166630 -0.466648
										CHANNELS 6 Xposition Yposition Zposition Xrotation Yrotation Zrotation
										End Site
										{
											OFFSET -1.690319 -0.452920 0.000000
										}
									}
								}
							}
						}
					}
					JOINT LeftShoulder
					{
						OFFSET 0.788280 -1.313800 4.256718
						CHANNELS 6 Xposition Yposition Zposition Xrotation Yrotation Zrotation
						JOINT LeftArm
						{
							OFFSET 3.915130 0.000000 0.000000
							CHANNELS 6 Xposition Yposition Zposition Xrotation Yrotation Zrotation
							JOINT LeftForeArm
							{
								OFFSET 6.914910 0.000000 0.000000
								CHANNELS 6 Xposition Yposition Zposition Xrotation Yrotation Zrotation
								JOINT LeftHand
								{
									OFFSET 6.096219 0.000000 0.000000
									CHANNELS 6 Xposition Yposition Zposition Xrotation Yrotation Zrotation
									JOINT LeftHandEnd
									{
										OFFSET 1.749950 0.000000 0.000000
										CHANNELS 6 Xposition Yposition Zposition Xrotation Yrotation Zrotation
										End Site
										{
											OFFSET 1.749950 0.000000 0.000000
										}
									}
									JOINT LeftHandThumb1
									{
										OFFSET 0.699980 -1.166630 -0.466648
										CHANNELS 6 Xposition Yposition Zposition Xrotation Yrotation Zrotation
										End Site
										{
											OFFSET 1.690319 -0.452920 0.000000
										}
									}
								}
							}
						}
					}
				}
			}
		}
	}
	JOINT RightUpLeg
	{
		OFFSET -2.338570 -0.252550 -0.551512
		CHANNELS 6 Xposition Yposition Zposition Xrotation Yrotation Zrotation
		JOINT RightLeg
		{
			OFFSET 0.000000 0.000000 -10.744959
			CHANNELS 6 Xposition Yposition Zposition Xrotation Yrotation Zrotation
			JOINT RightFoot
			{
				OFFSET 0.000000 -0.000001 -10.930849
				CHANNELS 6 Xposition Yposition Zposition Xrotation Yrotation Zrotation
				JOINT RightToeBase
				{
					OFFSET 0.000000 -4.087269 -1.487650
					CHANNELS 6 Xposition Yposition Zposition Xrotation Yrotation Zrotation
					End Site
					{
						OFFSET 0.000000 -1.891870 0.000000
					}
				}
			}
		}
	}
	JOINT LeftUpLeg
	{
		OFFSET 2.338570 -0.252550 -0.551512
		CHANNELS 6 Xposition Yposition Zposition Xrotation Yrotation Zrotation
		JOINT LeftLeg
		{
			OFFSET 0.000000 0.000000 -10.744959
			CHANNELS 6 Xposition Yposition Zposition Xrotation Yrotation Zrotation
			JOINT LeftFoot
			{
				OFFSET 0.000000 -0.000001 -10.930849
				CHANNELS 6 Xposition Yposition Zposition Xrotation Yrotation Zrotation
				JOINT LeftToeBase
				{
					OFFSET 0.000000 -4.087269 -1.487650
					CHANNELS 6 Xposition Yposition Zposition Xrotation Yrotation Zrotation
					End Site
					{
						OFFSET 0.000000 -1.891870 0.000000
					}
				}
			}
		}
	}
}
MOTION
Frames: 5
Frame Time: 0.041667
0.000135 26.668921 40.287178 2.688725 -6.958549 72.862914 0.000001 0.900082 1.860694 19.601098 21.660748 0.849611 -0.000017 0.400283 2.270288 0.000009 -0.000000 0.000016 0.000012 0.200883 2.296556 0.000003 0.000000 0.000000 0.000021 0.000030 2.305342 0.000039 -0.000005 2.325760 -0.000017 -0.864425 6.051378 65.786285 91.166667 103.553099 0.000036 -0.550409 3.121677 -0.000007 0.000002 -0.000007 -0.788266 -1.313708 4.256864 -117.973473 52.700254 -77.500517 -3.915143 -0.000023 -0.000016 -0.000001 -0.000009 0.000002 -6.914848 -0.000001 0.000028 0.000010 -0.000002 -20.215852 -6.096197 -0.000004 0.000024 0.000106 0.000129 0.000030 -1.749892 -0.000019 0.000032 0.000001 0.000004 0.000001 -0.699958 -1.166614 -0.466648 -0.000029 -0.000008 -0.000037 0.788254 -1.313767 4.256801 -133.800455 -26.103253 48.861046 3.915228 -0.000009 -0.000020 0.000000 0.000003 -0.000002 6.914930 -0.000082 0.000017 0.000011 -0.000007 32.156152 6.096271 0.000170 -0.000043 0.000141 -0.000147 -0.000015 1.750002 0.000029 0.000056 -0.000013 -0.000000 -0.000002 0.700004 -1.166587 -0.466642 0.000045 -0.000005 -0.000041 -2.338580 -0.252530 -0.551445 5.548463 -10.083656 0.226340 0.000021 -0.000006 -10.744946 10.527619 -9.244015 -1.467779 -0.000025 0.000068 -10.930844 0.000061 -0.000005 0.000017 -0.000026 -4.087237 -1.487618 0.000007 0.000003 -0.000000 2.338605 -0.252519 -0.551507 2.346990 -3.130075 0.098168 -0.000012 -0.000014 -10.744933 8.297848 -2.895485 -0.127285 0.000024 -0.000012 -10.930864 0.000032 0.000008 0.000011 -0.000059 -4.087205 -1.487656 -0.000001 -0.000001 -0.000003 
0.000178 26.668915 40.287113 -0.133906 -5.305003 63.131992 -0.000003 0.900082 1.860681 17.572564 15.840303 1.989038 -0.000017 0.400283 2.270284 0.000005 0.000000 0.000014 0.000009 0.200883 2.296556 -0.000002 -0.000002 0.000001 0.000019 0.000034 2.305346 0.000037 -0.000002 11.521696 -0.000017 -0.864422 6.051368 117.652044 77.612095 50.496989 0.000048 -0.550411 3.121673 -0.000008 -0.000004 -0.000008 -0.788269 -1.313707 4.256848 -94.574972 103.574027 -92.702217 -3.915127 -0.000024 -0.000016 0.000005 -0.000007 0.000003 -6.914852 -0.000001 0.000031 0.000005 -0.000025 -27.839156 -6.096193 -0.000001 0.000024 0.000112 0.000129 0.000022 -1.749897 -0.000014 0.000039 -0.000002 0.000003 0.000004 -0.699956 -1.166610 -0.466646 -0.000029 -0.000009 -0.000036 0.788253 -1.313765 4.256783 -130.492840 -18.484532 53.437617 3.915230 -0.000011 -0.000031 0.000000 0.000006 -0.000003 6.914932 -0.000083 0.000013 -0.000005 0.000033 43.349455 6.096271 0.000177 -0.000034 0.000140 -0.000152 -0.000009 1.750006 0.000029 0.000052 -0.000012 -0.000005 0.000002 0.700005 -1.166577 -0.466648 0.000043 -0.000008 -0.000040 -2.338584 -0.252530 -0.551460 6.925550 -9.245354 0.745325 0.000019 -0.000005 -10.744942 11.616863 -12.532219 -0.640567 -0.000027 0.000068 -10.930842 0.000067 -0.000004 0.000018 -0.000027 -4.087237 -1.487616 0.000005 0.000001 0.000000 2.338603 -0.252518 -0.551515 4.317129 -4.469676 0.458864 -0.000008 -0.000015 -10.744942 5.478487 -6.030461 0.148904 0.000027 -0.000011 -10.930866 0.000031 0.000004 0.000011 -0.000060 -4.087206 -1.487656 0.000001 -0.000004 -0.000005 
-0.000021 26.669031 40.287189 5.003447 -2.718979 63.792061 -0.000000 0.900085 1.860688 12.451683 19.626680 0.146579 -0.000018 0.400283 2.270288 0.000006 0.000000 0.000015 0.000010 0.200883 2.296558 0.000001 0.000000 0.000001 0.000021 0.000036 2.305338 0.000038 0.000003 4.525225 -0.000020 -0.864424 6.051369 92.677792 105.385379 85.426385 0.000043 -0.550410 3.121681 -0.000007 -0.000002 -0.000007 -0.788271 -1.313709 4.256847 -148.424109 76.062120 -32.901619 -3.915134 -0.000023 -0.000023 -0.000000 -0.000009 0.000001 -6.914854 0.000002 0.000024 -0.000009 -0.000058 -38.141262 -6.096199 -0.000005 0.000016 0.000109 0.000130 0.000026 -1.749900 -0.000019 0.000036 0.000003 0.000007 0.000005 -0.699956 -1.166611 -0.466657 -0.000029 -0.000008 -0.000032 0.788251 -1.313768 4.256784 -130.625797 -26.442934 44.041763 3.915233 -0.000013 -0.000023 0.000000 0.000005 -0.000003 6.914932 -0.000081 0.000021 0.000009 -0.000007 31.945573 6.096279 0.000178 -0.000046 0.000140 -0.000146 -0.000014 1.750007 0.000032 0.000055 -0.000007 -0.000004 0.000006 0.700002 -1.166575 -0.466637 0.000050 -0.000008 -0.000035 -2.338583 -0.252528 -0.551451 3.227398 -13.292345 0.050412 0.000015 -0.000005 -10.744950 11.808460 -3.413471 -2.654750 -0.000026 0.000071 -10.930845 0.000063 -0.000006 0.000018 -0.000034 -4.087239 -1.487618 0.000004 -0.000000 0.000001 2.338604 -0.252515 -0.551506 -3.970470 -1.246777 -0.048401 -0.000012 -0.000017 -10.744940 11.031815 -7.275900 -0.131999 0.000033 -0.000011 -10.930866 0.000036 0.000007 0.000009 -0.000056 -4.087203 -1.487654 -0.000001 0.000001 -0.000004 
0.000028 26.669100 40.287231 5.262386 -2.310295 62.548707 -0.000002 0.900080 1.860688 7.946908 18.160478 0.516280 -0.000014 0.400282 2.270280 0.000005 0.000000 0.000014 0.000011 0.200881 2.296553 0.000000 -0.000001 0.000002 0.000021 0.000028 2.305350 0.000039 -0.000001 5.742638 -0.000018 -0.864423 6.051357 143.244653 112.528173 32.375554 0.000047 -0.550411 3.121681 -0.000007 -0.000003 -0.000006 -0.788263 -1.313707 4.256843 -116.219671 74.726183 -62.568604 -3.915134 -0.000024 -0.000020 0.000000 -0.000007 0.000003 -6.914853 -0.000000 0.000032 -0.000000 -0.000037 -31.813939 -6.096200 -0.000004 0.000023 0.000110 0.000127 0.000026 -1.749902 -0.000018 0.000034 0.000001 -0.000001 -0.000000 -0.699955 -1.166611 -0.466645 -0.000029 -0.000009 -0.000039 0.788256 -1.313768 4.256780 -130.820758 -38.210506 40.723401 3.915233 -0.000013 -0.000027 -0.000005 0.000003 0.000000 6.914933 -0.000085 0.000019 -0.000026 0.000066 54.933111 6.096272 0.000176 -0.000039 0.000146 -0.000150 -0.000013 1.749998 0.000030 0.000051 -0.000011 -0.000003 -0.000001 0.700001 -1.166580 -0.466641 0.000041 -0.000006 -0.000039 -2.338583 -0.252532 -0.551444 1.461607 -10.493180 0.102848 0.000019 -0.000005 -10.744949 10.915623 -8.861050 -1.362655 -0.000021 0.000070 -10.930842 0.000065 -0.000005 0.000013 -0.000029 -4.087237 -1.487616 0.000002 -0.000002 -0.000003 2.338604 -0.252520 -0.551502 -3.635375 -1.862765 -0.227034 -0.000009 -0.000016 -10.744937 16.964392 -6.546268 0.447512 0.000028 -0.000010 -10.930863 0.000032 0.000006 0.000009 -0.000058 -4.087204 -1.487654 0.000001 -0.000000 -0.000003 
-0.000013 26.668987 40.286865 2.009741 -4.051430 54.490139 -0.000001 0.900081 1.860694 5.809069 12.083158 0.482878 -0.000019 0.400282 2.270288 0.000005 0.000000 0.000019 0.000011 0.200883 2.296564 -0.000000 0.000001 0.000003 0.000016 0.000032 2.305342 0.000038 -0.000001 5.302243 -0.000020 -0.864427 6.051369 159.494835 129.299729 36.095665 0.000033 -0.550409 3.121670 -0.000008 -0.000008 -0.000008 -0.788264 -1.313708 4.256853 -126.792585 81.053274 -51.361441 -3.915133 -0.000026 -0.000016 0.000000 -0.000006 0.000002 -6.914847 -0.000000 0.000037 -0.000006 -0.000050 -35.920009 -6.096198 -0.000005 0.000023 0.000109 0.000131 0.000026 -1.749901 -0.000019 0.000036 0.000003 0.000003 0.000004 -0.699964 -1.166615 -0.466653 -0.000026 -0.000006 -0.000037 0.788255 -1.313768 4.256780 -122.777145 -42.218386 47.112893 3.915240 -0.000011 -0.000027 0.000001 0.000003 -0.000000 6.914931 -0.000083 0.000023 0.000008 0.000003 34.414834 6.096272 0.000172 -0.000045 0.000144 -0.000149 -0.000011 1.750009 0.000027 0.000061 -0.000009 -0.000003 -0.000002 0.700005 -1.166582 -0.466637 0.000041 -0.000006 -0.000039 -2.338583 -0.252532 -0.551443 5.851356 -9.795539 0.487277 0.000017 0.000000 -10.744946 9.717850 -3.858246 -0.881784 -0.000023 0.000070 -10.930840 0.000065 -0.000008 0.000016 -0.000032 -4.087242 -1.487617 0.000007 -0.000001 -0.000001 2.338602 -0.252521 -0.551509 0.520385 -9.144285 0.029419 -0.000015 -0.000017 -10.744939 11.236197 -1.314550 -0.909016 0.000026 -0.000010 -10.930862 0.000034 0.000004 0.000010 -0.000061 -4.087204 -1.487657 0.000001 -0.000001 -0.000005 
